<svg version="1.1" id="Layer_1" xmlns="http://www.w3.org/2000/svg" x="0" y="0" viewBox="0 0 278.1 228.5" style="enable-background:new 0 0 278.1 228.5" xml:space="preserve"><style>.st2{fill:url(#SVGID_00000150103238395318489130000018337290995639876746_)}.st3{fill:url(#SVGID_00000043445097079900703300000006317346263175507121_)}</style><radialGradient id="SVGID_1_" cx="-817.193" cy="663.521" r="1" gradientTransform="matrix(0 76.6164 75.1118 0 -49763.117 62695.973)" gradientUnits="userSpaceOnUse"><stop offset=".49" style="stop-color:#00a3ff"/><stop offset="1" style="stop-color:#00a3ff;stop-opacity:0"/></radialGradient><path d="M75.1 9c41.5 0 75.1 33.6 75.1 75.1v3c0 41.5-33.6 75.1-75.1 75.1C33.6 162.2 0 128.6 0 87.1v-3C0 42.6 33.6 9 75.1 9z" style="fill:url(#SVGID_1_)"/><path d="M75.1 32.2c28.6 0 51.8 23.2 51.8 51.8v3c0 28.6-23.2 51.8-51.8 51.8-28.6 0-51.8-23.2-51.8-51.8v-3c0-28.6 23.2-51.8 51.8-51.8z" style="fill:none;stroke:#3222ff;stroke-width:46.5882"/><radialGradient id="SVGID_00000022545172519850678190000000335559885336980367_" cx="-811.682" cy="654.742" r="1" gradientTransform="matrix(74.2395 25.8879 25.3795 -75.7267 43728.059 70742.555)" gradientUnits="userSpaceOnUse"><stop offset=".594" style="stop-color:#00e0ff"/><stop offset="1" style="stop-color:red;stop-opacity:0"/><stop offset="1" style="stop-color:#00e0ff;stop-opacity:0"/></radialGradient><path style="fill:url(#SVGID_00000022545172519850678190000000335559885336980367_)" d="m11.6 123.7.8-2.4c13.8-41.2 58.2-63 99.2-48.7 41 14.3 63.1 59.3 49.3 100.4l-.8 2.4c-13.8 41.2-58.2 63-99.2 48.7-41.1-14.3-63.1-59.3-49.3-100.4z"/><radialGradient id="SVGID_00000159467500960243272700000011858923318380286861_" cx="-818.201" cy="660.831" r="1" gradientTransform="matrix(0 111.871 109.754 0 -72360.508 91644.82)" gradientUnits="userSpaceOnUse"><stop offset=".49" style="stop-color:red"/><stop offset="1" style="stop-color:#e61717;stop-opacity:0"/></radialGradient><path style="fill:url(#SVGID_00000159467500960243272700000011858923318380286861_)" d="M168.4 0C229 0 278.1 49.1 278.1 109.8v4.2c0 60.6-49.1 109.8-109.8 109.8-60.6 0-109.8-49.1-109.8-109.8v-4.2C58.6 49.1 107.7 0 168.4 0z"/><path d="M168.4 20.1c49.5 0 89.6 40.1 89.6 89.6v4.2c0 49.5-40.1 89.6-89.6 89.6-49.5 0-89.6-40.1-89.6-89.6v-4.2c-.1-49.5 40.1-89.6 89.6-89.6z" style="fill:none;stroke:#ff22f6;stroke-width:40.2353"/></svg>