<svg width="32" height="32" viewBox="0 0 32 32" fill="none" xmlns="http://www.w3.org/2000/svg">
<path d="M19.6667 7.97795C19.6667 4.24753 19.6667 2.38232 18.9692 1.6185C18.3655 0.95735 17.4702 0.643315 16.5858 0.782422C15.5639 0.943132 14.3987 2.39962 12.0684 5.3126L6.13173 12.7334C4.35643 14.9525 3.46878 16.0621 3.46777 16.9959C3.4669 17.808 3.83614 18.5762 4.47084 19.0828C5.20064 19.6654 6.62157 19.6654 9.46344 19.6654H10.2001C10.9468 19.6654 11.3202 19.6654 11.6054 19.8107C11.8563 19.9386 12.0602 20.1425 12.1881 20.3934C12.3334 20.6786 12.3334 21.052 12.3334 21.7987V24.0195C12.3334 27.7499 12.3334 29.6152 13.0309 30.379C13.6347 31.0401 14.5299 31.3542 15.4144 31.2151C16.4362 31.0543 17.6014 29.5979 19.9318 26.6849L25.8684 19.2641C27.6437 17.045 28.5313 15.9354 28.5324 15.0016C28.5332 14.1895 28.164 13.4213 27.5293 12.9146C26.7995 12.3321 25.3786 12.3321 22.5367 12.3321H21.8001C21.0533 12.3321 20.68 12.3321 20.3947 12.1867C20.1439 12.0589 19.9399 11.8549 19.8121 11.6041C19.6667 11.3188 19.6667 10.9455 19.6667 10.1987V7.97795Z" fill="#FABE00"/>
</svg>
