<svg xmlns="http://www.w3.org/2000/svg" width="228" height="64" fill="none"><path d="M66.341 49.84c-9.455 1.08-18.81 2.666-28.127 4.443-6.796 1.292-13.216 3.702-20.277 3.125-6.741-.55-13.39-3.794-15.362-9.942-2.027-6.322 1.421-14.816 9.052-16.438 1.32-.284 2.687-.33 4.035-.174 2.724.311 5.457 1.52 7.429 3.207 7.767 6.634 15.233 11.39 26.56 7.779 11.114-3.235 17.167-14.496 9.427-19.875-4.237-2.639-9.309-3.07-14.307-3.619-4.219-.32-12.528-2.575-14.078-4.15-1.953-2.08-3.32-4.591-1.751-7.13 2.724-4.407 9.29-5.68 14.453-4.645 3.623.724 6.163 1.786 9.061 3.995 2.834 2.162 4.44 4.233 5.448 7.358l4.136-5.122c.101-.129.285-.275.211-.422C58.418 1 46.128-.823 37.893.597a33.324 33.324 0 0 0-4.127.972c-4.632 1.401-8.905 4.773-9.997 9.108-.1.403-.174.806-.229 1.218-.202 11.408 15.793 10.767 24.872 12.572 1.532.302 3.017.77 4.42 1.448 2.798 1.347 6.952 4.728 3.623 10.06-3.44 4.655-10.097 3.813-14.995 2.127a22.63 22.63 0 0 1-4.888-2.346c-1.495-.953-2.779-2.172-4.182-3.235-2.907-2.199-6.163-4.05-9.712-4.966a18.536 18.536 0 0 0-5.906-.522C9.829 27.527 3.06 31.486.942 37.552-1.34 44.067.566 51.699 6.216 56.428c.293.247.596.485.908.714a21.384 21.384 0 0 0 3.65 2.163c7.694 3.28 16.223 2.95 24.34 1.337 8.281-1.64 16.242-4.434 24.57-5.928 9.354-1.686 18.626-3.748 28.072-5.03a170.27 170.27 0 0 1 8.896-.99c38.5-3.418 74.973 1.823 111.135 14.01 4.191.156 15.517-.091 20.195-.1-26.413-9.924-59.622-13.727-87.978-15.623-24.726-1.128-48.818.018-73.68 2.867l.017-.009Z" fill="url(#a)"/><path d="m182.117 17.081-.064.056-.092.1c-.092.101-.165.202-.238.303l-.101.155-.119.202a1.82 1.82 0 0 0-.156.467l-.019.055-.036.293v.303c0 .11.009.22.027.33l.037.256.055.266.073.238.11.184.138.183.092.091c.064.056.128.11.21.165l.12.083.293.137c.11.037.229.074.367.101.138.028.284.055.449.064.165.019.34.028.532.028l.486-.019.441-.036.394-.064.348-.083c.147-.046.276-.091.404-.137l.183-.083.23-.128a1.08 1.08 0 0 0 .192-.147c.055-.046.12-.1.175-.155.055-.055.119-.11.174-.165.055-.055.11-.12.165-.193l.147-.22.128-.256.101-.303c.055-.22.082-.476.092-.779V18.1l-.046-.257-.064-.238-.083-.22-.101-.202-.119-.183-.138-.165-.156-.156-.174-.137-.192-.12-.202-.1-.211-.083-.22-.064-.23-.045-.238-.028h-.248c-.064 0-.119-.01-.174-.01h-.697l-.018.01h-.019l-.018.01h-.018l-.019.008h-.018l-.018.01h-.064l-.01.009h-.009l-.009.009h-.009l-.009.01h-.009l-.01.008h-.009l-.009.01h-.018l-.019.018h-.018l-.018.018h-.019l-.018.018h-.018l-.019.019c-.44.201-.743.394-.963.604l-.66.23Z" fill="url(#b)"/><path d="M125.101 27.784c-1.367-1.933-2.036-3.042-2.036-3.326 0-.376.321-.926.963-1.622.632-.706.834-.916.917-1.127.174-.458-.248-.797-.826-.797-.422 0-.926.449-1.504 1.338-.77 1.127-1.871 2.318-3.311 3.555-1.311 1.063-2.604 2.116-3.879 3.143-.137.11-.257.21-.376.311l-.156.128c-.293.239-.55.468-.789.67-1.586 1.3-5.713 4.6-7.254 5.955-1.697 1.485-3.522 2.676-4.329 2.676a1.92 1.92 0 0 1-.293-.055c-.404-.12-.587-.586-.633-1.237 0-1.439.358-2.749 1.055-3.922l9.703-16.237h4.97l1.046-2.08h-4.916l4.586-7.092-6.181.257-6.971 11.334a757.763 757.763 0 0 0-3.778 6.176c-1.394 1.2-3.081 2.584-7.346 4.628.853-2.09 1.311-3.583 1.311-4.298 0-2.162-1.302-3.244-3.925-3.244-3.32 0-6.731 1.961-10.253 5.874-.202.229-.376.449-.56.678-2.522 2.52-5.355 5.635-7.254 7.248-1.742 1.484-2.467 1.548-3.274 1.63-.037 0-.137 0-.284-.026-.422-.101-.67-.505-.752-1.173-.046-.853.146-2.154.56-3.886.485-1.869.98-3.042 1.476-3.5a610.21 610.21 0 0 0 5.145-4.636c6.621-6.222 11.5-12.398 14.637-18.528.761-1.457 1.036-2.391 1-3.72-.037-1.329-1.211-1.906-3.238-1.704-4.182.403-8.96 4.425-14.316 12.086-4.301 6.148-7.41 12.269-9.309 18.39-1.045 3.353-1.467 6.084-1.265 8.2.073.853.458 1.568 1.155 2.136.697.577 1.523.815 2.477.724 1.531-.147 3.393-.651 6.713-4.344.89-.99 1.916-2.135 2.907-3.243-.56 1.356-.862 2.657-.862 3.894-.01 2.474 1.513 3.702 4.558 3.702 2.2 0 4.686-1.393 7.474-4.17 2.009-2.024 3.678-4.132 5.145-6.606 2.284-.403 4.88-2.098 6.475-3.335a25.98 25.98 0 0 0-.358.65c-2.054 4.023-3.09 7.459-3.1 10.309 0 .852.312 1.603.945 2.235.633.633 1.43.953 2.394.953 1.541 0 3.852-1.603 7.493-4.993 1.439-1.347 5.071-4.344 7.08-6.121.605-.468 1.522-1.192 2.769-2.209 2.302-1.878 3.641-2.932 4.026-3.17v1.65c-.018 2.812-.431 5.424-1.247 7.824-.743 2.136-1.687 3.592-2.843 4.38a4.15 4.15 0 0 1-2.43.78c-.89 0-1.734-.34-2.421-1.036.266.073.596.11.981.11a2.12 2.12 0 0 0 1.587-.697c.44-.467.669-.97.669-1.52 0-1.622-.862-2.429-2.595-2.429-.927 0-1.688.275-2.284.825a2.727 2.727 0 0 0-.908 2.052c0 1.375.734 2.474 2.192 3.299 1.275.724 2.733 1.081 4.393 1.081h.458c2.541-.1 4.953-1.163 7.236-3.198 2.394-2.089 3.596-4.361 3.605-6.799 0-1.273-.679-2.877-2.036-4.82l-.009.019ZM78.42 13.609C82.803 6.672 86.289 3.07 88.912 2.824c.284-.028.972-.055 1.017.944-.229 2.611-2.75 6.835-7.584 12.681-4.384 5.315-8.07 9.072-11.079 11.262 1.064-3.519 3.458-8.22 7.163-14.093l-.01-.01Zm5.172 24.877c-.77 0-1.201-.339-1.155-1.026.183-2.373 1.146-4.068 1.192-4.15a20.512 20.512 0 0 1 3.338-4.61c.88 1.65 2.385 2.584 4.503 2.786-2.751 4.682-5.374 7.01-7.878 7.01v-.01Zm9.51-9.941c-.256 1.044-.605 1.621-1.045 1.704a.957.957 0 0 1-.293.046c-.77 0-1.55-.294-2.339-.88-.78-.577-1.174-1.2-1.174-1.85 0-.652.45-1.284 1.33-1.907.89-.623 1.697-.934 2.43-.934 1 0 1.495.568 1.495 1.704 0 .513-.192 1.21-.412 2.107l.009.01Z" fill="url(#c)"/><path d="M221.14 40.163c-1.926.22-5.237 1.008-8.281 1.668 3.173-4.178 8.244-13.323 11.372-18.033-.862-.128-3.183-.275-4.347-.055-1.449 1.622-4.182 5.91-5.907 8.284-2.457 2.886-3.604 6.075-6.933 7.43-2.907-.503-.128-3.61 1.202-6.752 1.274-2.474 2.32-4.353 3.173-5.727 1.476-4.518-3.669-3.986-7.016-1.063-4.182 2.51-8.162 11.848-12.812 12.965-1.963-1.356.082-4.535 1.018-6.01l9.253-15.66h4.971l1.037-2.053h-4.907l4.595-7.11-6.182.256c-2.632 4.206-11.867 19.234-12.729 21.488-2.302 2.382-9.318 7.88-11.161 8.595-.34 0-.541-.248-.358-.569 1.513-3.912 3.843-8.31 6.979-13.194h-6.126c-.147.293-.33.595-.541.889v-.037c-2.385 2.96-6.576 7.312-12.812 10.895-10.611 6.093-12.785-.98-10.859-7.541 1.532-5.223 4.439-12.545 13.555-21.708 3.898-3.921 11.152-7.275 13.381-4.462 1.375 1.732.394 6.405-3.595 8.366-1.513.742-.477 1.594-.055 1.42 1.733-.706 4.393-3.317 5.181-5.773 1.605-4.966-2.375-9.547-12.702-4.435-11.94 5.91-18.223 13.717-22.405 22.752-1.861 4.023-4.145 12.856.257 15.953 4.393 3.097 10.685 1.64 17.233-2.07 4.108-2.328 7.593-5.434 10.235-8.302-2.018 3.83-7.172 11.27-1.348 11.976 4.026 0 9.996-6.726 13.169-9.163-3.962 8.2 1.174 13.542 9.492 4.645 1.679-1.76 7.089-9.236 7.557-9.73.972-.816 1.697-1.934 2.018-.972 0 .238-1.11 2.061-3.338 5.461-2.706 4.856-4.641 6.13-2.367 9.31 2.889 2.345 6.833.311 9.016-1.961 0 0-1.908 2.932-1.917 2.932-.174.266-1.422.495-1.743.605-.669.229-1.348.449-2.008.678-1.385.485-2.761 1.008-4.045 1.677-2.412 1.264-4.42 3.188-4.191 5.855.037.385.129.714.275 1.017a279.4 279.4 0 0 1 6.503 1.493c2.467-.65 4.099-2.098 5.53-4.205 1.091-1.604 2.054-3.29 3.045-4.94.101-.164.559-1.181.733-1.209 5.081-.852 6.695-.128 9.373-.128 1.789-1.686 2.871-2.941 3.788-3.675.559-.448-.807-.366-3.265-.082l.009.01ZM198.9 53.111c-1.366 0-2.127-.569-1.972-1.732.184-1.338.927-2.154 1.881-2.905.944-.751 2.008-1.356 3.136-1.85l4.586-2.017c-3.155 5.507-5.815 8.494-7.631 8.494v.01Z" fill="url(#d)"/><path d="M90.04 31.193c.284.11.577.165.862.192a6.224 6.224 0 0 1-.862-.192ZM33.188 2.696C42.194-.127 56.739.946 61.582 9.2c.183-.311.678-.623.66-.97-6.41-10.914-32.126-11.308-38.005 1.062 1.807-3.106 5.255-5.48 8.951-6.588v-.01ZM16.212 28.16c7.74-.743 14.105 4.224 19.8 8.723 5.852 3.61 16.921 6.625 20.599-1.173-4.595 6.377-14.334 3.445-20.03.037-4.292-3.235-8.501-6.937-13.894-8.201-7.979-2.108-18.177 1.814-21.369 9.09 2.788-4.903 8.768-8.037 14.894-8.476Z" fill="#F8E82F"/><path d="M66.341 49.84c-9.455 1.08-18.81 2.666-28.127 4.443-6.796 1.292-13.216 3.702-20.278 3.125C7.527 57.06-1.488 48.144 3.208 38.056-2.607 48.41 6.27 58.14 17.368 58.544c7.062.578 13.481-1.823 20.277-3.124 9.318-1.778 18.682-3.354 28.128-4.445 54.109-7.128 109.989-2.492 162.227 11.62-51.083-17.456-108.136-18.748-161.659-12.756Zm115.721-32.703c-.348.375-.651.815-.715 1.337.385-.531 1.155-.898 1.862-1.117.229-.074.476-.11.715-.12 1.917-.155 3.274.834 2.935 2.86.697-.752.788-2.008.302-2.915-.302-.513-.843-.86-1.421-.998-.404-.092-.853-.092-1.266-.083-.137 0-.266.018-.403.046-.697.137-1.569.55-2.009.99ZM124.55 28.911c2.055 3.005 2.531 4.655 1.541 7.44 3.045-4.526-1.367-8.475-3.036-11.902-1.192 1.74-.22 1.548 1.495 4.462Zm-9.51.349c-2.036 1.74-6.163 4.975-8.199 6.752-3.889 3.519-6.42 3.812-4.742-1.392-2.356 5.012-.917 7.22 4.201 2.529 3.861-3.253 8.556-7.02 12.454-10.208 1-.816 1.761-1.713 2.568-2.73.413-.523.825-1.054 1.312-1.522.238-.229 1.073-.824 1.412-.485.495.504-.963 2.043-1.229 2.428.541-.43 1.073-.862 1.55-1.365.385-.404.734-.89.761-1.439.009-.302-.092-.632-.339-.806-1.101-.77-2.055 1.118-2.541 1.75-.632.843-1.384 1.603-2.164 2.318-1.605 1.475-3.375 2.749-5.026 4.16l-.018.01Zm-3.182-20.93-6.971 11.336c-3.879 6.276-3.42 7.064-11.124 10.803 5.3-11.124-7.759-8.476-12.858-1.677a48.41 48.41 0 0 1-1.66 1.732c-.385.595-.78 1.182-1.183 1.768a50.915 50.915 0 0 0 2.293-2.364c5.108-6.808 18.159-9.447 12.858 1.677 7.703-3.739 7.245-4.536 11.124-10.803l6.97-11.335 5.989-.247.743-1.146-6.181.257Zm3.182 29.433c.266-3.4-5.301-3.024-5.723-.138 1.449-1.98 5.732-1.42 5.154 1.54.376-.44.578-.908.578-1.402h-.009Zm2.751-21.469.569-1.137h-4.723l-.734 1.137h4.888ZM88.214 2.155c3.091-.376 3.65 1.402 3.027 3.51 1.091-2.32 1.209-5.17-2.577-4.684-8.685.55-20.204 19.307-23.24 28.369 3.146-8.77 14.509-26.81 22.79-27.195Zm10.364 28.231c.073-.155.192-.375.358-.65-.267.32-.395.779-.588 1.127.083-.165.156-.32.239-.486l-.01.01Zm70.424-27.021c10.492-5.187 14.482-.413 12.583 4.746 3.082-5.69-.917-11.371-12.041-5.874-11.822 5.856-18.095 13.57-22.277 22.487 4.182-8.44 10.418-15.752 21.735-21.36Zm37.813 5.818.733-1.136-6.181.256c-2.632 4.206-11.858 19.224-12.729 21.488 2.21-4.206 9.822-16.595 12.179-20.351l5.998-.248v-.009Zm.486 7.111.569-1.137h-4.724l-.733 1.137h4.888Zm-29.329 8.329c-.147.293-.33.595-.541.889v-.037c-8.374 11.362-32.585 23.906-21.332-2.923-12.409 27.571 11.454 16.447 20.781 4.06v.036c.211-.293.395-.587.542-.89h5.961c.238-.375.467-.75.715-1.135h-6.126Z" fill="#F8E82F"/><path d="M174.322 31.715c-.917 1.283-1.679 2.914-2.431 4.435.826-1.622 1.789-3.216 2.431-4.435Zm46.818 8.448c-1.852.211-5.007.953-7.96 1.604-.303.43-.597.843-.872 1.2 4.256-.925 7.897-1.87 11.198-1.906 1.779-1.466 1.156-1.228-2.366-.898Zm-15.921-11.692s-.009-.027-.018-.036c-1.11 1.878-5.09 7.88-5.861 9.74.826-1.558 6.072-9.64 5.879-9.704Z" fill="#F8E82F"/><path d="M204.394 25.906c-4.182 2.51-8.163 11.847-12.812 12.965-1.11-.76-.936-2.107-.413-3.408-.853 1.566-1.577 3.546-.138 4.535 4.659-1.118 8.63-10.455 12.812-12.965 3.229-2.823 8.135-3.409 7.136.623 2.687-4.692-2.935-5.168-6.594-1.75h.009Zm3.292 7.926c-.027.055-.046.11-.073.164.11-.21.22-.43.321-.65-.083.165-.165.32-.257.486h.009Zm12.188-10.098c-1.449 1.622-4.182 5.91-5.906 8.283-2.458 2.887-3.604 6.075-6.933 7.431-1.486-.256-1.486-1.19-.954-2.464-.963 1.832-1.495 3.27.404 3.6 4.778-2.208 9.299-11.911 12.848-15.714 1.101-.201 3.21-.082 4.182.037.248-.385.486-.76.716-1.109-.862-.128-3.183-.275-4.347-.055l-.01-.01Zm-42.755 14.084c.44-1.146.963-2.337 1.541-3.565-.294.962-2.999 5.269-1.734 5.26 2.11-1.155 9.997-6.405 11.712-9.722-1.266 1.292-11.868 10.546-11.519 8.027Zm-63.482-22.661 3.851-5.956-.192.01-3.852 5.946h.193ZM92.47 29.983c.816-1.338 2.073-5.26-.45-5.26-1.173-.073-3.723 1.412-3.76 2.731 2.99-2.859 5.906-1.823 4.21 2.53Zm30.595-5.525c.513-.752 1.586-1.439 1.311-2.016-.55.559-1.394 1.622-1.311 2.016ZM90.021 3.447c-.046-.999-.743-.971-1.027-.935-5.2-.045-15.985 18.986-17.535 24.127 1.88-5.232 12.188-23.091 17.104-22.945 1.174-.238 1.146 1.292.752 2.291.413-.971.66-1.814.715-2.538h-.009Zm120.967 24.218c-.798 1.365-2.064 3.573-3.054 5.69 1.21-2.52 2.357-3.986 3.054-5.69Zm-27.605-1.915c-1.899 3.024-3.467 5.855-4.723 8.503 1.32-2.648 2.944-5.48 4.888-8.503h-.165Zm22.689 11.234c.486-.926 1.082-1.952 1.541-2.987-.56 1.08-1.174 2.116-1.541 2.987Zm-2.926-21.827 3.861-5.983-.192.01-3.852 5.973h.183Z" fill="#F8E82F"/><path d="M223.506 24.907c-3.136 4.92-7.713 13.048-10.647 16.924.11-.028.21-.046.321-.074 3.173-4.535 7.648-12.525 10.5-16.832-.055 0-.11-.018-.174-.027v.009ZM59.041 21.901c-4.255-2.648-9.354-3.088-14.38-3.637-3.815-.294-8.694-1.274-13.087-3.666-1.257-.687-2.33-1.713-2.852-3.033-.817-2.052-.156-3.61-.257-3.5-1.724 1.943-.734 5.232 1.467 7.175 1.569 1.585 9.914 3.84 14.16 4.169 5.026.55 10.125.98 14.38 3.638 3.742 2.602 4.265 6.57 2.569 10.354 2.357-4.105 2.127-8.623-1.99-11.49l-.01-.01Z" fill="#F8E82F"/><path d="M149.679 47.32c-6.952-.358-13.454-.917-25.569-.66-3.522.073-7.062.1-10.574.32 14.939.083 31.172.99 46.561 2.832a238.19 238.19 0 0 1 39.684 8.2 239.76 239.76 0 0 1 7.529 2.383c1.963.66 5.026 2.492 7.062 2.492l13.362.046c-22.121-9.273-57.677-14.56-78.046-15.613h-.009Z" fill="#4899D3"/><path d="M214.711 62.878c-22.148-9.19-57.97-14.587-78.156-15.678-5.53-.302-26.202-.64-34.3-.137 1.321.183 8.603.504 12.656.504.798 0 5.787-.018 6.576 0 31.026.797 59.676 7.853 79.715 15.366l13.509-.055Z" fill="#F7C804"/><path d="m147.084 56.61 3.246.468-2.357 2.236.55 3.161-2.907-1.493-2.907 1.493.569-3.161-2.348-2.236 3.246-.467 1.459-2.877 1.449 2.877Z" fill="#F8E82F"/><path d="m133.309 56.61 3.255.468-2.357 2.236.551 3.161-2.908-1.493-2.916 1.493.569-3.161-2.348-2.236 3.246-.467 1.468-2.877 1.44 2.877Z" fill="#F8E82F"/><path d="m119.543 56.61 3.246.468-2.357 2.236.551 3.161-2.908-1.493-2.916 1.493.569-3.161-2.348-2.236 3.256-.467 1.458-2.877 1.449 2.877Z" fill="#F8E82F"/><path d="m119.543 56.61 3.246.468-2.357 2.236.551 3.161-2.908-1.493-2.916 1.493.569-3.161-2.348-2.236 3.256-.467 1.458-2.877 1.449 2.877Z" fill="#F8E82F"/><mask id="j" style="mask-type:luminance" maskUnits="userSpaceOnUse" x="113" y="53" width="10" height="10"><path d="m119.543 56.61 3.246.468-2.357 2.236.551 3.161-2.908-1.493-2.916 1.493.569-3.161-2.348-2.236 3.256-.467 1.458-2.877 1.449 2.877Z" fill="#fff"/></mask><path d="m105.768 56.61 3.246.468-2.357 2.236.551 3.161-2.908-1.493-2.907 1.493.56-3.161-2.339-2.236 3.247-.467 1.458-2.877 1.449 2.877Z" fill="#F8E82F"/><path d="m91.993 56.61 3.256.468-2.357 2.236.55 3.161-2.907-1.493-2.917 1.493.569-3.161-2.348-2.236 3.247-.467 1.458-2.877 1.449 2.877Z" fill="#F8E82F"/><defs><linearGradient id="a" x1="114.004" y1="63.162" x2="114.004" y2=".579" gradientUnits="userSpaceOnUse"><stop offset="0" stop-color="#CEA23F"/><stop offset="1" stop-color="#FCC000"/></linearGradient><linearGradient id="b" x1="184.382" y1="21.168" x2="184.382" y2="16.129" gradientUnits="userSpaceOnUse"><stop offset="0" stop-color="#CEA23F"/><stop offset="1" stop-color="#FCC000"/></linearGradient><linearGradient id="c" x1="95.267" y1="43.031" x2="95.267" y2="1.413" gradientUnits="userSpaceOnUse"><stop offset="0" stop-color="#CEA23F"/><stop offset="1" stop-color="#FCC000"/></linearGradient><linearGradient id="d" x1="184.703" y1="54.778" x2="184.703" y2=".368" gradientUnits="userSpaceOnUse"><stop offset="0" stop-color="#CEA23F"/><stop offset="1" stop-color="#FCC000"/></linearGradient><linearGradient id="e" x1="145.635" y1="63.373" x2="145.635" y2="-15.557" gradientUnits="userSpaceOnUse"><stop offset="0" stop-color="#C39647"/><stop offset="1" stop-color="#F1B739"/></linearGradient><linearGradient id="g" x1="145.635" y1="63.373" x2="145.635" y2="-15.557" gradientUnits="userSpaceOnUse"><stop offset="0" stop-color="#C39647"/><stop offset="1" stop-color="#F1B739"/></linearGradient><linearGradient id="i" x1="118.085" y1="63.373" x2="118.085" y2="-15.557" gradientUnits="userSpaceOnUse"><stop offset="0" stop-color="#C39647"/><stop offset="1" stop-color="#F1B739"/></linearGradient><linearGradient id="k" x1="118.085" y1="63.373" x2="118.085" y2="-15.557" gradientUnits="userSpaceOnUse"><stop offset="0" stop-color="#C39647"/><stop offset="1" stop-color="#F1B739"/></linearGradient><linearGradient id="m" x1="118.085" y1="63.373" x2="118.085" y2="-15.557" gradientUnits="userSpaceOnUse"><stop offset="0" stop-color="#C39647"/><stop offset="1" stop-color="#F1B739"/></linearGradient></defs></svg>
