<svg viewBox="0 0 96 32" fill="none" xmlns="http://www.w3.org/2000/svg">
<path d="M42.7399 6L39.8317 25.2946H44.4801L47.3864 6H42.7399ZM56.7609 13.8595C55.1365 13.0043 54.1407 12.4271 54.1407 11.5524C54.1606 10.7571 54.9828 9.94226 56.8189 9.94226C58.3291 9.90182 59.439 10.2802 60.2811 10.6567L60.703 10.8574L61.3349 6.82051C60.4168 6.44212 58.961 6.0252 57.1629 6.0252C52.5725 6.0252 49.3403 8.56973 49.3202 12.209C49.2823 14.8945 51.6343 16.3848 53.3946 17.2788C55.1927 18.1959 55.8048 18.7904 55.8048 19.6052C55.7849 20.8562 54.3508 21.4334 53.0126 21.4334C51.1585 21.4334 50.1625 21.1361 48.6505 20.4391L48.0384 20.1418L47.3884 24.3371C48.4803 24.8546 50.4884 25.31 52.5727 25.3333C57.451 25.3333 60.6253 22.8273 60.6652 18.9488C60.6811 16.8212 59.4408 15.1916 56.7609 13.8595ZM73.2517 6.05971H69.6554C68.5472 6.05971 67.7051 6.39956 67.2253 7.61201L60.3206 25.2946H65.1989L66.5425 21.4662H72.0003L72.6974 25.31H76.9999L73.2517 6.05971ZM67.8954 17.6028C67.9895 17.6125 69.7678 11.3533 69.7678 11.3533L71.1838 17.6028C71.1838 17.6028 68.8135 17.6028 67.8954 17.6028ZM35.9477 6L31.3935 19.1089L30.8974 16.5237C30.0553 13.5409 27.4153 10.2995 24.469 8.68937L28.6393 25.2753H33.5575L40.8659 6.00212H35.9477V6Z" fill="#2394BC"/>
<path d="M29.4156 8.49413C29.0571 7.02293 27.9137 6.0307 26.3609 6.00952H19.075L19 6.36652C24.6835 7.84535 29.4539 12.3957 31.0015 16.6759L29.4156 8.49413Z" fill="#EFC75E"/>
</svg>
